<svg width="24" height="23" viewBox="0 0 24 23" fill="none" xmlns="http://www.w3.org/2000/svg">
<path d="M18.3433 13.6576C17.9603 12.2669 17.1324 11.0404 15.9865 10.1663C14.8407 9.2923 13.4402 8.81897 12 8.81897C10.5597 8.81897 9.15927 9.2923 8.01343 10.1663C6.86758 11.0404 6.03966 12.2669 5.65666 13.6576L4.74396 16.9719C4.58009 17.567 4.55564 18.1919 4.67252 18.798C4.7894 19.4041 5.04445 19.9749 5.41779 20.466C5.79113 20.9572 6.27266 21.3553 6.82484 21.6293C7.37703 21.9033 7.98494 22.0459 8.60118 22.0459H15.3988C16.015 22.0459 16.6229 21.9033 17.1751 21.6293C17.7273 21.3553 18.2088 20.9572 18.5822 20.466C18.9555 19.9749 19.2106 19.4041 19.3275 18.798C19.4443 18.1919 19.4199 17.567 19.256 16.9719L18.3433 13.6576ZM17.3089 19.4945C17.0859 19.7903 16.7971 20.0299 16.4656 20.1945C16.1341 20.3591 15.7688 20.444 15.3988 20.4427H8.60118C8.23143 20.4427 7.86667 20.3571 7.53536 20.1927C7.20404 20.0283 6.91512 19.7894 6.69111 19.4947C6.4671 19.2001 6.31407 18.8575 6.24394 18.4939C6.17381 18.1302 6.18849 17.7553 6.28682 17.3982L7.19952 14.084C7.48936 13.0315 8.11592 12.1034 8.98306 11.4419C9.85021 10.7804 10.91 10.4222 12 10.4222C13.0899 10.4222 14.1498 10.7804 15.0169 11.4419C15.8841 12.1034 16.5106 13.0315 16.8005 14.084L17.7132 17.3982C17.8129 17.7551 17.8283 18.1304 17.7581 18.4943C17.688 18.8582 17.5341 19.2005 17.3089 19.4945ZM6.50319 9.93677C6.64243 9.065 6.45777 8.13175 5.98302 7.30827C5.50826 6.4848 4.79363 5.85797 3.97051 5.54288C3.08902 5.20564 2.18992 5.25935 1.43798 5.69404C-0.0568616 6.5586 -0.45024 8.68938 0.561241 10.444C1.03585 11.2674 1.75053 11.8944 2.57365 12.2094C2.93827 12.3517 3.32585 12.4259 3.71718 12.4283C4.20471 12.4301 4.68399 12.3024 5.10618 12.0581C5.85768 11.6234 6.35384 10.87 6.50319 9.93677ZM4.92267 9.68336C4.85115 10.1307 4.63207 10.481 4.30582 10.6697C3.97956 10.8584 3.56723 10.8732 3.14459 10.7116C2.66378 10.5277 2.23854 10.1479 1.94714 9.64232C1.38696 8.67035 1.5201 7.49796 2.23824 7.08251C2.41877 6.97989 2.62322 6.92703 2.83078 6.9293C3.02549 6.93132 3.21818 6.96896 3.39937 7.04038C3.88018 7.2244 4.30542 7.60412 4.59681 8.1097C4.88821 8.61528 5.0039 9.17427 4.92267 9.68336ZM6.67654 6.61536C7.24483 7.07044 7.89379 7.30742 8.55006 7.30737C8.74663 7.30731 8.94263 7.28613 9.1347 7.24419C10.8214 6.87689 11.8441 4.96741 11.4144 2.98763C11.2129 2.05843 10.7228 1.24322 10.0346 0.692052C9.2976 0.101851 8.42462 -0.121554 7.57644 0.063222C5.88979 0.43047 4.8671 2.33996 5.29669 4.31974C5.49831 5.24898 5.98837 6.06419 6.67654 6.61536ZM7.91635 1.62991C7.99412 1.61311 8.07347 1.60472 8.15303 1.60486C8.45053 1.60486 8.75653 1.72145 9.03517 1.9446C9.43715 2.26651 9.72669 2.75796 9.85043 3.32847C10.0885 4.42545 9.60505 5.50129 8.79474 5.67775C8.42657 5.75792 8.02924 5.64629 7.67602 5.36336C7.27404 5.04141 6.98449 4.54996 6.86075 3.9795C6.62263 2.88221 7.10608 1.80637 7.91635 1.62991ZM22.562 5.69404C21.8104 5.25935 20.9108 5.20564 20.0295 5.54288C19.2063 5.85787 18.4917 6.4848 18.0171 7.30827C17.5425 8.13175 17.3577 9.0652 17.4969 9.93677C17.646 10.87 18.1421 11.6234 18.8939 12.0581C19.3161 12.3024 19.7954 12.4301 20.2829 12.4283C20.6742 12.4259 21.0618 12.3517 21.4264 12.2094C22.2495 11.8944 22.9642 11.2674 23.4388 10.444C24.4502 8.68938 24.0568 6.5586 22.562 5.69404ZM22.0528 9.64232C21.7614 10.1479 21.3362 10.5277 20.8554 10.7116C20.433 10.8733 20.0205 10.8585 19.6943 10.6697C19.368 10.4809 19.1491 10.1307 19.0774 9.68336C18.9961 9.17427 19.1117 8.61548 19.4032 8.11016C19.6946 7.60483 20.1198 7.22485 20.6006 7.04083C20.7818 6.96935 20.9745 6.93164 21.1692 6.92955C21.3768 6.92728 21.5812 6.98014 21.7617 7.08276C22.4799 7.49786 22.6132 8.6701 22.0528 9.64232ZM14.8653 7.24419C15.0573 7.28613 15.2533 7.30731 15.4499 7.30737C16.1061 7.30737 16.7553 7.07044 17.3234 6.61536C18.0116 6.06424 18.5017 5.24898 18.7033 4.31979C19.1329 2.34001 18.1102 0.43052 16.4235 0.0632721C15.5754 -0.121404 14.7024 0.101851 13.9654 0.692102C13.2772 1.24322 12.7871 2.05848 12.5855 2.98763C12.1559 4.96741 13.1786 6.87689 14.8653 7.24419ZM14.1495 3.32822C14.2733 2.75771 14.5628 2.26606 14.9648 1.94435C15.2435 1.7212 15.5495 1.60461 15.8469 1.60461C15.9265 1.60446 16.0059 1.61286 16.0836 1.62966C16.8939 1.80612 17.3773 2.88221 17.1393 3.97894C17.0155 4.54946 16.7259 5.04111 16.3241 5.36286C15.9709 5.64574 15.5738 5.75737 15.2053 5.67725C14.3949 5.50104 13.9115 4.42505 14.1495 3.32822Z" fill="#F0F7F1"/>
</svg>
