<svg width="58" height="58" viewBox="0 0 58 58" fill="none" xmlns="http://www.w3.org/2000/svg">
<circle cx="29" cy="29" r="29" fill="#1AAB50"/>
<path d="M33.174 41.1392C33.7127 41.141 34.2444 41.0163 34.7268 40.7752C34.8391 40.719 34.9481 40.6569 35.0532 40.5891V40.9335L35.9512 39.753C36.2786 39.3226 36.5019 38.8215 36.6037 38.2896C36.7055 37.758 36.6833 37.2098 36.5388 36.6884C36.5387 36.688 36.5386 36.6876 36.5384 36.6872L35.4024 32.5323C35.0129 31.1076 34.1706 29.8504 33.0039 28.9539C31.837 28.0575 30.4103 27.5716 28.9425 27.5716C27.4748 27.5716 26.048 28.0575 24.8812 28.9539C23.7144 29.8504 22.8722 31.1076 22.4826 32.5323L21.3461 36.689C21.2035 37.2104 21.1823 37.758 21.284 38.2891C21.3856 38.8201 21.6076 39.3206 21.9328 39.7515C22.258 40.1824 22.6777 40.5321 23.1596 40.7729C23.6414 41.0138 24.1721 41.1392 24.7103 41.1392H33.174ZM33.174 41.1392C33.1736 41.1392 33.1733 41.1392 33.1729 41.1392L33.1748 40.6392V41.1392H33.174ZM39.2565 30.5876C39.7438 30.5846 40.2264 30.4915 40.6805 30.313L41.8428 22.5735C43.4043 23.4831 43.9144 25.8201 42.7524 27.8505L42.7524 27.8505C42.2134 28.7924 41.4091 29.4963 40.5007 29.8464L40.4975 29.8476C40.1008 30.0036 39.6793 30.0849 39.2538 30.0876M39.2565 30.5876L39.2547 30.0876C39.2544 30.0876 39.2541 30.0876 39.2538 30.0876M39.2565 30.5876L39.2534 30.0876C39.2535 30.0876 39.2537 30.0876 39.2538 30.0876M39.2565 30.5876C38.6494 30.5899 38.0526 30.4297 37.5269 30.1233L41.8428 22.5735C41.0503 22.1119 40.0905 22.0447 39.1208 22.4184C38.2123 22.7686 37.408 23.4725 36.869 24.4144C36.3301 25.3562 36.1271 26.4125 36.2812 27.3844C36.4459 28.4225 36.9855 29.2293 37.7786 29.6913L37.7787 29.6913C38.2273 29.9528 38.7363 30.0894 39.2538 30.0876M15.1328 27.8504L15.1328 27.8505C15.6718 28.7924 16.4761 29.4963 17.3845 29.8464L17.3877 29.8476C17.7843 30.0036 18.2057 30.0849 18.6311 30.0876C19.1487 30.0894 19.6578 29.9528 20.1066 29.6913C20.8993 29.2294 21.439 28.4225 21.604 27.3844L15.1328 27.8504ZM15.1328 27.8504C13.9707 25.8201 14.4808 23.4832 16.0422 22.5736L15.1328 27.8504ZM20.6236 27.2231L20.6236 27.2233C20.5164 27.8985 20.1765 28.4859 19.6133 28.8139C19.0494 29.1424 18.3724 29.1461 17.736 28.9011L17.7359 28.9011C17.0151 28.6233 16.4022 28.061 15.9906 27.3417L15.9906 27.3417C15.5923 26.6456 15.4334 25.8673 15.5121 25.1703C15.5903 24.4773 15.9141 23.8129 16.5354 23.4509L16.5386 23.449L16.5386 23.449C16.8405 23.2761 17.1828 23.1869 17.5304 23.1908M20.6236 27.2231L17.5249 23.6907M20.6236 27.2231C20.7449 26.4576 20.5697 25.6423 20.158 24.9229C19.7468 24.2043 19.1348 23.6425 18.4151 23.3644M20.6236 27.2231L18.2329 23.83M17.5304 23.1908L17.5249 23.6907M17.5304 23.1908C17.5303 23.1908 17.5302 23.1908 17.5301 23.1908L17.5249 23.6907M17.5304 23.1908C17.8334 23.194 18.1332 23.2528 18.4151 23.3644M17.5249 23.6907C17.7674 23.6933 18.0073 23.7405 18.2329 23.83M18.4151 23.3644C18.4143 23.3641 18.4136 23.3638 18.4128 23.3635L18.2329 23.83M18.4151 23.3644C18.4159 23.3647 18.4167 23.365 18.4174 23.3653L18.2329 23.83M27.7246 18.8524L27.7246 18.8524C27.4956 17.7889 26.9417 16.8705 26.1813 16.2571C25.3694 15.6023 24.4347 15.3717 23.5414 15.5677L23.5414 15.5677C21.7829 15.9533 20.5903 18.0196 21.0843 20.3125L21.0843 20.3125C21.3134 21.376 21.8673 22.2945 22.6276 22.9078C23.2552 23.414 23.9545 23.6649 24.6465 23.6649L27.7246 18.8524ZM27.7246 18.8524C28.2186 21.1453 27.0261 23.2116 25.2675 23.5973L25.2672 23.5973M27.7246 18.8524L25.2672 23.5973M25.2672 23.5973C25.0633 23.6422 24.8553 23.6648 24.6466 23.6649L25.2672 23.5973ZM23.7504 16.5558L23.7513 16.5557C23.8832 16.527 24.0177 16.5126 24.1527 16.5128M23.7504 16.5558L25.5646 17.0497C25.1459 16.712 24.6573 16.5129 24.1527 16.5128M23.7504 16.5558C23.0479 16.7099 22.5381 17.2443 22.2541 17.8809C21.9686 18.521 21.8851 19.3112 22.0543 20.0963C22.229 20.9074 22.6426 21.6305 23.2443 22.1159C23.7755 22.5444 24.4213 22.7492 25.0584 22.6094L25.0584 22.6094M23.7504 16.5558L25.0584 22.6094M24.1527 16.5128C24.1526 16.5128 24.1524 16.5128 24.1523 16.5128V17.0128L24.1532 16.5128C24.153 16.5128 24.1529 16.5128 24.1527 16.5128ZM25.0584 22.6094C25.761 22.4553 26.2708 21.921 26.5548 21.2845C26.8403 20.6444 26.9238 19.8543 26.7547 19.0692M25.0584 22.6094L26.7547 19.0692M37.2616 27.2234L37.2616 27.2232C37.1402 26.4577 37.3153 25.6425 37.7272 24.9233C38.1383 24.2053 38.7501 23.6432 39.4699 23.365C39.7517 23.2533 40.0516 23.1944 40.3546 23.1911C40.3547 23.1911 40.3547 23.1911 40.3547 23.1911L40.3601 23.691L37.2616 27.2234ZM37.2616 27.2234C37.369 27.8985 37.7087 28.4857 38.2718 28.8139C38.8357 29.1425 39.5128 29.1464 40.1492 28.9011M37.2616 27.2234L40.1492 28.9011M32.6175 23.5973L32.6178 23.5973C32.8217 23.6422 33.0298 23.6648 33.2384 23.6649L32.6175 23.5973ZM32.6175 23.5973C30.859 23.2116 29.6664 21.1453 30.1604 18.8524L30.1604 18.8524C30.3895 17.789 30.9434 16.8705 31.7038 16.2572L31.7038 16.2572C32.5156 15.6023 33.4503 15.3718 34.3437 15.5677L34.4508 15.0794L34.3437 15.5677C36.1022 15.9534 37.2947 18.0197 36.8008 20.3126C36.5717 21.376 36.0177 22.2945 35.2574 22.9078L35.2574 22.9079M32.6175 23.5973L35.2574 22.9079M35.2574 22.9079C34.6301 23.414 33.9306 23.6649 33.2386 23.6649L35.2574 22.9079ZM33.7324 16.5125C33.2277 16.5126 32.7393 16.7117 32.3206 17.0493C31.7186 17.5345 31.305 18.258 31.1304 19.069C30.9613 19.8539 31.0448 20.644 31.3303 21.2841C31.6143 21.9206 32.1242 22.4549 32.8269 22.6088L32.9339 22.1204L32.8269 22.6088C33.4643 22.7484 34.1097 22.5438 34.6409 22.1153C35.2426 21.63 35.6561 20.9066 35.8309 20.0957L35.8309 20.0957C36 19.3108 35.9165 18.5207 35.6309 17.8806C35.347 17.2441 34.8372 16.7096 34.1347 16.5555L34.1338 16.5553C34.0019 16.5267 33.8673 16.5123 33.7324 16.5125ZM33.7324 16.5125C33.7322 16.5125 33.7321 16.5125 33.7319 16.5125L33.7328 17.0125V16.5125C33.7327 16.5125 33.7325 16.5125 33.7324 16.5125ZM26.7547 19.0692C26.58 18.2582 26.1664 17.5351 25.5646 17.0498L26.7547 19.0692ZM40.1492 28.9011C40.8699 28.6233 41.4828 28.061 41.8944 27.3417M40.1492 28.9011L41.8944 27.3417M41.8944 27.3417L41.4605 27.0934L41.8944 27.3417ZM33.602 28.1471C34.9419 29.1765 35.9107 30.6216 36.359 32.2613L37.4955 36.418C37.6794 37.0907 37.7069 37.7972 37.5757 38.4824C37.4445 39.1676 37.1583 39.8126 36.7397 40.3673C36.3211 40.9219 35.7814 41.3711 35.1631 41.6802C34.5448 41.9893 33.8644 42.15 33.1748 42.15H24.7103C24.0207 42.15 23.3402 41.9893 22.7219 41.6802C22.1036 41.3711 21.564 40.9219 21.1454 40.3673C20.7268 39.8126 20.4405 39.1676 20.3094 38.4824C20.1782 37.7972 20.2056 37.0907 20.3895 36.418L21.526 32.2613C21.9743 30.6216 22.9432 29.1765 24.283 28.1471C25.6228 27.1178 27.2597 26.5608 28.9425 26.5608C30.6254 26.5608 32.2623 27.1178 33.602 28.1471ZM21.0162 24.4144C21.5553 25.3562 21.7582 26.4121 21.604 27.3842L18.7643 22.4184C19.6729 22.7688 20.4771 23.4725 21.0162 24.4144ZM16.0423 22.5735C16.8351 22.1119 17.7944 22.0447 18.7643 22.4184L16.0423 22.5735Z" fill="#0B1519" stroke="#0B1519"/>
</svg>
