<svg width="25" height="25" viewBox="0 0 25 25" fill="none" xmlns="http://www.w3.org/2000/svg">
<g clip-path="url(#clip0_1111_10976)">
<rect y="0.191406" width="24.4696" height="24.4696" rx="6.5708" fill="white"/>
<path d="M16.7878 2.14782C16.69 1.95395 16.4151 1.94997 16.3118 2.14067L15.3639 3.89504C15.2138 4.17234 14.8951 4.31377 14.5908 4.23431C13.9997 4.08017 13.3156 3.99197 12.5854 3.99197C11.9021 3.99197 11.2577 4.06905 10.6935 4.20571C10.3932 4.27801 10.0825 4.13261 9.93633 3.86008L9.01465 2.14305C8.91216 1.95156 8.63565 1.95474 8.53792 2.14941L6.03031 7.14079C5.91192 7.37756 6.08355 7.65566 6.34813 7.65566H6.43394C9.07027 7.65566 11.3896 9.39652 12.1261 11.928L12.4098 12.9021L12.6362 13.622C12.6593 13.6951 12.7268 13.7451 12.8039 13.7451C12.8809 13.7451 12.9493 13.6951 12.9715 13.6212L13.0367 13.4098L13.5182 11.7214C14.2039 9.31548 16.4024 7.65566 18.9045 7.65566H18.9791C19.2437 7.65566 19.4154 7.37677 19.297 7.14079L16.7886 2.14782H16.7878Z" fill="#EF9C2E"/>
<path d="M18.9066 8.46954C16.7685 8.46954 14.8902 9.88782 14.3038 11.9433L13.8199 13.6397L13.6721 14.1196C13.4766 14.7719 13.2716 15.5188 13.0818 16.2299C13.0063 16.5128 12.605 16.5112 12.5311 16.2284C12.3468 15.5196 12.1426 14.7783 11.9471 14.1395L11.6317 13.136L11.3457 12.1539C10.71 9.97046 8.70933 8.46875 6.43532 8.46875C6.01897 8.46875 5.74088 8.84537 5.87992 9.24185L10.6385 22.05C10.6981 22.2288 10.8769 22.3472 11.0747 22.3472H14.2076C14.4055 22.3472 14.5842 22.228 14.6438 22.05L19.4421 9.24185C19.6011 8.8255 19.323 8.46875 18.9066 8.46875V8.46954Z" fill="#1E261F"/>
</g>
<defs>
<clipPath id="clip0_1111_10976">
<rect width="24.3803" height="24.3803" fill="white" transform="translate(0 0.191406)"/>
</clipPath>
</defs>
</svg>
