<svg width="58" height="58" viewBox="0 0 58 58" fill="none" xmlns="http://www.w3.org/2000/svg">
<circle cx="29" cy="29" r="29" fill="#FD5251"/>
<path d="M39.1202 23.1892L34.0345 23.115C34.0971 22.7059 34.025 22.2827 33.8116 21.9142C33.4815 21.342 32.8733 20.9878 32.2153 20.9835L16.2522 20.8498C15.5861 20.8438 14.9724 21.1951 14.6406 21.7698C14.3088 22.3445 14.3137 23.0529 14.6497 23.6255L22.7434 37.3841C23.0784 37.9531 23.6892 38.3027 24.3475 38.3012C24.7733 38.3017 25.1796 38.1516 25.4989 37.8938L28.1083 42.2623C28.4922 42.9049 29.1878 43.2975 29.9359 43.2933C30.684 43.2891 31.3736 42.8907 31.7461 42.2456L34.7518 37.0395L37.4889 38.6198C38.3814 39.1351 39.5208 38.8328 40.0335 37.9447L41.3449 35.6733C41.8577 34.7852 41.5498 33.6473 40.6572 33.132L37.9202 31.5518L40.9259 26.3457C41.2984 25.7006 41.2986 24.9042 40.9281 24.2542C40.5577 23.6042 39.8699 23.1981 39.1215 23.187L39.1202 23.1892ZM29.8827 37.0328L27.9818 33.8516L31.7717 27.2872L35.4772 27.3429L29.8841 37.0305L29.8827 37.0328Z" fill="#0B1519"/>
</svg>
