<svg width="40" height="37" viewBox="0 0 40 37" fill="none" xmlns="http://www.w3.org/2000/svg">
<path d="M13.059 28.292V29.3802C13.059 30.5347 13.5177 31.6419 14.334 32.4582C15.1503 33.2745 16.2575 33.7331 17.412 33.7331C18.5665 33.7331 19.6736 33.2745 20.49 32.4582C21.3063 31.6419 21.7649 30.5347 21.7649 29.3802V28.292M7.64549 16.3214C7.64368 15.0307 7.89735 13.7525 8.39186 12.5604C8.88636 11.3682 9.61193 10.2857 10.5267 9.37533C11.4416 8.46491 12.5275 7.74456 13.722 7.25579C14.9165 6.76703 16.196 6.51952 17.4866 6.52753C22.8719 6.56757 27.1796 11.0439 27.1796 16.4443V17.4096C27.1796 22.2816 28.1989 25.1087 29.0966 26.6539C29.1933 26.819 29.2448 27.0067 29.2458 27.1981C29.2468 27.3894 29.1974 27.5776 29.1024 27.7438C29.0075 27.9099 28.8704 28.048 28.7051 28.1443C28.5397 28.2405 28.3519 28.2915 28.1605 28.292H6.66344C6.47207 28.2915 6.28422 28.2405 6.11883 28.1442C5.95345 28.048 5.81637 27.9098 5.72144 27.7436C5.62651 27.5775 5.57708 27.3892 5.57814 27.1978C5.5792 27.0065 5.6307 26.8188 5.72746 26.6537C6.6257 25.1084 7.64548 22.2813 7.64548 17.4096L7.64549 16.3214Z" stroke="#F0F7F1" stroke-width="2.17647" stroke-linecap="round" stroke-linejoin="round"/>
<circle cx="27.7546" cy="11.4265" r="11.4265" fill="#FFB526"/>
<path d="M27.4041 17.5051C26.6728 17.5051 26.0061 17.3706 25.4038 17.1018C24.8123 16.8222 24.3123 16.4189 23.9036 15.8919L24.936 14.8595C25.1834 15.2359 25.5221 15.537 25.9523 15.7629C26.3825 15.978 26.861 16.0855 27.388 16.0855C27.8827 16.0855 28.3075 15.9941 28.6624 15.8113C29.028 15.6177 29.313 15.3488 29.5173 15.0047C29.7324 14.6605 29.84 14.2626 29.84 13.811C29.84 13.3485 29.7324 12.9506 29.5173 12.6172C29.313 12.2731 29.0226 12.0096 28.6462 11.8268C28.2698 11.644 27.8235 11.5525 27.3073 11.5525C27.1138 11.5525 26.9202 11.5687 26.7266 11.6009C26.533 11.6224 26.3448 11.6601 26.162 11.7139L26.8073 10.8428C27.0116 10.746 27.232 10.6707 27.4686 10.6169C27.7052 10.5631 27.9418 10.5363 28.1784 10.5363C28.7807 10.5363 29.3184 10.6761 29.7916 10.9557C30.2755 11.2353 30.6573 11.6278 30.9369 12.1333C31.2273 12.6387 31.3725 13.2248 31.3725 13.8916C31.3725 14.6014 31.2004 15.2305 30.8563 15.779C30.5229 16.3167 30.0604 16.7415 29.4689 17.0534C28.8775 17.3545 28.1892 17.5051 27.4041 17.5051ZM26.162 11.7139V10.7944L29.4367 7.06799L31.2434 7.05186L27.8719 10.875L26.162 11.7139ZM24.4359 7.50354V6.1485H31.2434V7.05186L29.9206 7.50354H24.4359Z" fill="#0B1519"/>
</svg>
