<svg width="32" height="32" viewBox="0 0 32 32" fill="none" xmlns="http://www.w3.org/2000/svg">
<path d="M15.9576 30.5589C15.5402 30.5589 15.1165 30.5402 14.699 30.5028C14.4654 30.481 14.2941 30.2754 14.3127 30.0449C14.3314 29.8112 14.537 29.6399 14.7707 29.6586C15.4841 29.7209 16.2099 29.7271 16.9202 29.6773C17.1507 29.6586 17.3564 29.8361 17.3719 30.0698C17.3875 30.3034 17.2131 30.5059 16.9794 30.5215C16.6398 30.5464 16.2972 30.5589 15.9545 30.5589H15.9576ZM19.1414 30.1913C18.9483 30.1913 18.7738 30.0604 18.7302 29.8642C18.6772 29.6368 18.8174 29.4093 19.0479 29.3564C19.7426 29.1944 20.4342 28.9763 21.0978 28.7053C21.3159 28.6181 21.562 28.7209 21.6492 28.9389C21.7364 29.157 21.6336 29.4031 21.4155 29.4903C20.7115 29.7769 19.9794 30.0106 19.2411 30.1819C19.2099 30.1882 19.1757 30.1944 19.1445 30.1944L19.1414 30.1913ZM12.4405 30.1258L12.5464 29.7146L12.4374 30.1227C11.6959 29.9389 10.9732 29.6991 10.2785 29.4062C10.0635 29.3159 9.96072 29.0667 10.0511 28.8517C10.1414 28.6368 10.3906 28.5339 10.6056 28.6243C11.2598 28.8984 11.942 29.1259 12.6336 29.3003L12.5433 29.7146L12.4374 30.1258H12.4405ZM23.2349 28.5277C23.0916 28.5277 22.9514 28.4561 22.8704 28.3221C22.7489 28.1227 22.8143 27.8611 23.0137 27.7396C23.6274 27.3688 24.2162 26.9483 24.7645 26.4903C24.942 26.3408 25.2099 26.3626 25.3626 26.5433C25.5121 26.724 25.4903 26.9888 25.3096 27.1414C24.7271 27.6305 24.104 28.076 23.4529 28.4685C23.3844 28.509 23.3096 28.5308 23.2349 28.5308V28.5277ZM8.47474 28.4218C8.39685 28.4218 8.32209 28.4 8.25044 28.3564C7.60558 27.9545 6.98876 27.4997 6.41243 27.0012C6.23486 26.8486 6.21617 26.5807 6.36882 26.4031C6.52147 26.2255 6.78938 26.2068 6.96695 26.3595C7.50901 26.8299 8.08844 27.2598 8.69592 27.6368C8.8953 27.7614 8.95449 28.023 8.83299 28.2193C8.752 28.347 8.61492 28.4187 8.47162 28.4187L8.47474 28.4218ZM26.6212 25.6866C26.5215 25.6866 26.4249 25.6523 26.3439 25.5838C26.1663 25.4311 26.1476 25.1632 26.3034 24.9857C26.7738 24.4467 27.2037 23.8642 27.5807 23.2567C27.7053 23.0573 27.9669 22.9981 28.1632 23.1196C28.3626 23.2442 28.4218 23.5059 28.3003 23.7022C27.8984 24.347 27.4405 24.9639 26.942 25.5371C26.8579 25.6336 26.7395 25.6835 26.6212 25.6835V25.6866ZM5.13829 25.5277C5.01679 25.5277 4.89841 25.4748 4.8143 25.3782C4.3252 24.7956 3.87972 24.1726 3.4872 23.5215C3.3657 23.3221 3.43112 23.0604 3.6305 22.9389C3.82988 22.8174 4.09156 22.8829 4.21305 23.0822C4.58377 23.6959 5.00433 24.2847 5.46539 24.8299C5.61492 25.0106 5.59312 25.2754 5.41243 25.428C5.33143 25.4935 5.23486 25.5277 5.13829 25.5277ZM28.9607 21.9389C28.9046 21.9389 28.8486 21.9296 28.7956 21.9047C28.5807 21.8143 28.4778 21.5651 28.5713 21.3502C28.8486 20.6928 29.076 20.0075 29.2504 19.3097L29.2629 19.2629C29.319 19.0355 29.5464 18.8953 29.7738 18.9514C30.0012 19.0075 30.1414 19.2349 30.0853 19.4623L30.0729 19.5153C29.8891 20.2536 29.6461 20.9794 29.3532 21.6773C29.2847 21.8392 29.1289 21.9358 28.9638 21.9358L28.9607 21.9389ZM2.8548 21.7458C2.68658 21.7458 2.5277 21.6461 2.46228 21.481C2.17567 20.7769 1.94203 20.0449 1.77069 19.3065C1.71773 19.0791 1.85791 18.8517 2.08844 18.7956C2.31586 18.7427 2.54327 18.8829 2.59935 19.1134C2.76134 19.8081 2.98253 20.4997 3.25044 21.1632C3.33767 21.3813 3.23486 21.6274 3.01679 21.7146C2.96383 21.7364 2.91087 21.7458 2.85791 21.7458H2.8548ZM30.0324 17.6025C30.0324 17.6025 30.0074 17.6025 29.995 17.6025C29.7613 17.5838 29.59 17.3782 29.6087 17.1445C29.6398 16.7614 29.6585 16.3751 29.6585 15.995C29.6585 15.6617 29.6461 15.3283 29.6212 14.995C29.6025 14.7614 29.78 14.5589 30.0137 14.5402C30.2473 14.5246 30.4498 14.6991 30.4685 14.9327C30.4934 15.2847 30.509 15.643 30.509 15.995C30.509 16.4 30.4903 16.8112 30.456 17.2162C30.4373 17.4374 30.2535 17.6056 30.0355 17.6056L30.0324 17.6025ZM1.85168 17.4436C1.6305 17.4436 1.4467 17.2723 1.42801 17.0511C1.40309 16.7084 1.39062 16.3595 1.39062 16.0137C1.39062 15.5994 1.40932 15.1788 1.44358 14.7676C1.46228 14.534 1.66788 14.3595 1.90153 14.3813C2.13517 14.4 2.30651 14.6056 2.28782 14.8393C2.25355 15.2287 2.23798 15.6212 2.23798 16.0137C2.23798 16.3377 2.25044 16.6648 2.27224 16.9888C2.28782 17.2224 2.11337 17.4249 1.87972 17.4436C1.87038 17.4436 1.85791 17.4436 1.84857 17.4436H1.85168ZM29.7084 13.1944C29.5152 13.1944 29.3408 13.0635 29.2972 12.8673C29.1321 12.1726 28.914 11.4841 28.6398 10.8206C28.5526 10.6025 28.6554 10.3564 28.8704 10.2692C29.0884 10.1788 29.3345 10.2847 29.4218 10.4997C29.7084 11.2037 29.9451 11.9358 30.1196 12.6741C30.1726 12.9016 30.0324 13.129 29.805 13.185C29.7738 13.1913 29.7395 13.1975 29.7084 13.1975V13.1944ZM2.22863 13.0262C2.19748 13.0262 2.16321 13.0231 2.13206 13.0137C1.90464 12.9576 1.76446 12.7396 1.81742 12.5121C1.81742 12.5121 1.82365 12.4841 1.82676 12.481C2.00745 11.7551 2.24732 11.0355 2.53704 10.347C2.62738 10.1321 2.87661 10.0293 3.09156 10.1196C3.30651 10.21 3.40932 10.4592 3.31897 10.6741C3.04483 11.3252 2.82053 12.0044 2.64919 12.6928C2.59935 12.886 2.42178 13.0262 2.22863 13.0262ZM28.0355 9.10405C27.8922 9.10405 27.752 9.0324 27.671 8.89844C27.3003 8.28473 26.8797 7.69906 26.4155 7.15078C26.266 6.97321 26.2878 6.7053 26.4654 6.55265C26.643 6.40311 26.9109 6.42492 27.0635 6.60249C27.5526 7.18193 28.0012 7.8081 28.3937 8.45607C28.5152 8.65545 28.4498 8.91713 28.2504 9.03863C28.1819 9.07913 28.1071 9.10093 28.0324 9.10093L28.0355 9.10405ZM3.94514 8.96698C3.86726 8.96698 3.79249 8.94517 3.72084 8.90156C3.52147 8.77695 3.46228 8.51526 3.58377 8.319C3.98564 7.67414 4.44047 7.0542 4.93891 6.481C5.09156 6.30343 5.35947 6.28473 5.53704 6.43738C5.71461 6.59003 5.7333 6.85794 5.58066 7.03551C5.11337 7.57757 4.68346 8.16012 4.30651 8.7676C4.22552 8.89844 4.08844 8.96698 3.94514 8.96698ZM25.185 5.7271C25.0853 5.7271 24.9888 5.69283 24.9078 5.6243C24.3657 5.15701 23.7831 4.7271 23.1757 4.35016C22.9763 4.22555 22.914 3.96698 23.0386 3.7676C23.1632 3.56822 23.4249 3.50903 23.6212 3.63053C24.266 4.0324 24.8859 4.48723 25.4623 4.98255C25.6398 5.1352 25.6585 5.40312 25.5059 5.58069C25.4218 5.67726 25.3034 5.7271 25.185 5.7271ZM6.83922 5.6243C6.71773 5.6243 6.59935 5.57445 6.51524 5.47477C6.3657 5.2972 6.38751 5.02928 6.56508 4.87664C7.14452 4.38754 7.77069 3.93894 8.42178 3.54642C8.62115 3.42492 8.88284 3.49034 9.00433 3.68972C9.12583 3.8891 9.06041 4.15078 8.86103 4.27227C8.24732 4.64299 7.66165 5.06355 7.11337 5.52461C7.03237 5.59003 6.9358 5.6243 6.83922 5.6243ZM21.4311 3.39689C21.375 3.39689 21.3221 3.38754 21.266 3.36262C20.6212 3.09159 19.9451 2.86729 19.2598 2.69907L19.2224 2.68972C18.995 2.63365 18.8579 2.40312 18.914 2.1757C18.9701 1.94829 19.2006 1.81122 19.428 1.86729L19.4654 1.87664C20.1912 2.05732 20.9078 2.29408 21.5931 2.5838C21.8081 2.67414 21.9109 2.92337 21.8205 3.13832C21.752 3.30031 21.5962 3.4 21.428 3.4L21.4311 3.39689ZM10.6212 3.3377C10.4529 3.3377 10.2972 3.23801 10.2286 3.0729C10.1414 2.85483 10.2442 2.60872 10.4623 2.5215C11.1663 2.23489 11.8984 2.00125 12.6367 1.82679C12.8641 1.77383 13.0916 1.91402 13.1476 2.14143C13.2006 2.36885 13.0604 2.59626 12.833 2.65234C12.1383 2.81433 11.4498 3.03551 10.7863 3.30654C10.7333 3.32835 10.6803 3.3377 10.6274 3.3377H10.6212ZM17.1383 2.34393C17.1383 2.34393 17.1134 2.34393 17.1009 2.34393C16.7146 2.30966 16.3252 2.29408 15.9389 2.29408H15.9327C15.6056 2.29408 15.2754 2.30654 14.9514 2.32835C14.7177 2.34704 14.5152 2.16947 14.4965 1.93583C14.4779 1.70218 14.6554 1.49969 14.8891 1.481C15.238 1.45608 15.5838 1.43427 15.9389 1.44361C16.3501 1.44361 16.7645 1.46231 17.1726 1.49657C17.4062 1.51527 17.5775 1.72087 17.5588 1.95452C17.5402 2.1757 17.3532 2.34081 17.1383 2.34081V2.34393Z" fill="#F0F7F1"/>
<path d="M16.0701 27.8204L14.9331 20.9512L14.1667 16.325C13.9736 15.1506 14.877 14.082 16.0701 14.082C17.2602 14.082 18.1667 15.1506 17.9736 16.325L17.2072 20.9512L16.0701 27.8204Z" fill="white" fill-opacity="0.2"/>
<path d="M16.0701 3.96875L17.2071 10.8379L17.9735 15.4641C18.1667 16.6385 17.2632 17.7071 16.0701 17.7071C14.88 17.7071 13.9735 16.6385 14.1666 15.4641L14.933 10.8379L16.0701 3.96875Z" fill="#F20530"/>
</svg>
