<svg width="33" height="32" viewBox="0 0 33 32" fill="none" xmlns="http://www.w3.org/2000/svg">
<path d="M27.4659 21.2965L20.6801 17.123C20.5611 17.0498 20.4282 17.0024 20.2898 16.9837L17.4375 16.5992C17.2233 16.5704 17.0055 16.6116 16.8168 16.7169C16.628 16.8222 16.4785 16.9858 16.3905 17.1832L14.6781 21.0255C14.5985 21.2042 14.573 21.4023 14.6049 21.5953C14.6367 21.7883 14.7245 21.9678 14.8573 22.1114L17.2072 24.6532C17.3138 24.7685 17.3917 24.9072 17.4347 25.0581C17.4777 25.209 17.4846 25.3679 17.4548 25.522L16.9761 27.9966M8.81433 6.95079L7.6963 9.59451C7.59662 9.83023 7.5911 10.0952 7.6809 10.3349L9.11726 14.1684C9.17608 14.3254 9.27342 14.4651 9.40033 14.5746C9.52725 14.6841 9.67966 14.76 9.84356 14.7952L12.5223 15.3709C12.6709 15.4029 12.8103 15.4683 12.9299 15.5622C13.0495 15.6561 13.146 15.7761 13.2123 15.9129L13.688 16.8957C13.7698 17.0648 13.8977 17.2074 14.0569 17.3072C14.2161 17.407 14.4002 17.46 14.5881 17.46H16.2671M19.7526 4.39357L20.9193 6.48337C21.0296 6.68092 21.0696 6.91004 21.0329 7.1333C20.9961 7.35655 20.8847 7.56074 20.7169 7.71251L17.3531 10.7547C17.296 10.8063 17.2331 10.8512 17.1657 10.8884L15.6355 11.7335C15.4875 11.8152 15.3212 11.8581 15.1521 11.8581H12.4839C12.2871 11.8581 12.0948 11.9161 11.9308 12.0249C11.7669 12.1338 11.6387 12.2885 11.5623 12.4699L10.5214 14.9409M28.6953 16C28.6953 22.6274 23.3227 28 16.6953 28C10.0679 28 4.69531 22.6274 4.69531 16C4.69531 9.37258 10.0679 4 16.6953 4C23.3227 4 28.6953 9.37258 28.6953 16Z" stroke="#A7B9A8" stroke-width="1.5" stroke-linecap="round" stroke-linejoin="round"/>
</svg>
