<svg width="33" height="32" viewBox="0 0 33 32" fill="none" xmlns="http://www.w3.org/2000/svg">
<path d="M16.7734 17C18.9826 17 20.7734 15.2091 20.7734 13C20.7734 10.7909 18.9826 9 16.7734 9C14.5643 9 12.7734 10.7909 12.7734 13C12.7734 15.2091 14.5643 17 16.7734 17Z" stroke="#F0F7F1" stroke-width="1.5" stroke-linecap="round" stroke-linejoin="round"/>
<path d="M26.7734 13C26.7734 22 16.7734 29 16.7734 29C16.7734 29 6.77344 22 6.77344 13C6.77344 10.3478 7.82701 7.8043 9.70237 5.92893C11.5777 4.05357 14.1213 3 16.7734 3C19.4256 3 21.9691 4.05357 23.8445 5.92893C25.7199 7.8043 26.7734 10.3478 26.7734 13Z" stroke="#F0F7F1" stroke-width="1.5" stroke-linecap="round" stroke-linejoin="round"/>
</svg>
