<svg width="32" height="32" viewBox="0 0 32 32" fill="none" xmlns="http://www.w3.org/2000/svg">
<path d="M1 16C1 7.71573 7.71573 1 16 1C24.2843 1 31 7.71573 31 16C31 24.2843 24.2843 31 16 31L1 31L1 16Z" fill="#FD5251" stroke="white" stroke-width="2"/>
<path d="M21.2746 13.3029L18.8644 13.2677C18.8941 13.0738 18.8599 12.8732 18.7588 12.6986C18.6023 12.4274 18.3141 12.2596 18.0022 12.2575L10.437 12.1942C10.1213 12.1913 9.83043 12.3578 9.67319 12.6302C9.51595 12.9025 9.51827 13.2383 9.67751 13.5096L13.5133 20.0301C13.6721 20.2998 13.9615 20.4654 14.2735 20.4647C14.4753 20.465 14.6679 20.3938 14.8192 20.2717L16.0559 22.342C16.2378 22.6466 16.5674 22.8326 16.922 22.8306C17.2765 22.8286 17.6034 22.6398 17.7799 22.3341L19.2043 19.8668L20.5015 20.6157C20.9245 20.8599 21.4645 20.7167 21.7075 20.2958L22.329 19.2193C22.572 18.7984 22.426 18.2592 22.003 18.015L20.7059 17.266L22.1304 14.7988C22.3069 14.493 22.307 14.1156 22.1314 13.8076C21.9559 13.4995 21.6299 13.307 21.2753 13.3018L21.2746 13.3029ZM16.8968 19.8636L15.9959 18.356L17.792 15.245L19.5481 15.2714L16.8974 19.8626L16.8968 19.8636Z" fill="#0B1519"/>
</svg>
