<svg width="32" height="32" viewBox="0 0 32 32" fill="none" xmlns="http://www.w3.org/2000/svg">
<path d="M1 16C1 7.71573 7.71573 1 16 1C24.2843 1 31 7.71573 31 16C31 24.2843 24.2843 31 16 31H1V16Z" fill="#1AAB50" stroke="white" stroke-width="2"/>
<path d="M20.7575 18.3172C20.4702 17.2666 19.8493 16.3401 18.9899 15.6798C18.1305 15.0195 17.0802 14.662 16 14.662C14.9198 14.662 13.8695 15.0195 13.0101 15.6798C12.1507 16.3401 11.5297 17.2666 11.2425 18.3172L10.558 20.8208C10.4351 21.2703 10.4167 21.7424 10.5044 22.2002C10.5921 22.6581 10.7833 23.0893 11.0633 23.4603C11.3433 23.8313 11.7045 24.132 12.1186 24.3391C12.5328 24.5461 12.9887 24.6538 13.4509 24.6538H18.5491C19.0113 24.6538 19.4672 24.5461 19.8813 24.3391C20.2955 24.132 20.6566 23.8313 20.9366 23.4603C21.2166 23.0893 21.4079 22.6581 21.4956 22.2002C21.5833 21.7424 21.5649 21.2703 21.442 20.8208L20.7575 18.3172ZM19.9817 22.7264C19.8144 22.9498 19.5978 23.1309 19.3492 23.2552C19.1005 23.3795 18.8266 23.4437 18.5491 23.4427H13.4509C13.1736 23.4427 12.9 23.378 12.6515 23.2538C12.403 23.1296 12.1863 22.9492 12.0183 22.7266C11.8503 22.504 11.7356 22.2452 11.683 21.9705C11.6304 21.6958 11.6414 21.4126 11.7151 21.1428L12.3996 18.6393C12.617 17.8442 13.0869 17.143 13.7373 16.6434C14.3877 16.1437 15.1825 15.8731 16 15.8731C16.8174 15.8731 17.6123 16.1437 18.2627 16.6434C18.913 17.143 19.383 17.8442 19.6003 18.6393L20.2849 21.1428C20.3597 21.4124 20.3712 21.6959 20.3186 21.9708C20.266 22.2457 20.1506 22.5045 19.9817 22.7266V22.7264ZM11.8774 15.5064C11.9818 14.8478 11.8433 14.1428 11.4873 13.5208C11.1312 12.8987 10.5952 12.4252 9.97788 12.1872C9.31676 11.9324 8.64244 11.973 8.07848 12.3013C6.95735 12.9545 6.66232 14.5641 7.42093 15.8895C7.77688 16.5116 8.3129 16.9852 8.93024 17.2231C9.20371 17.3306 9.49439 17.3867 9.78788 17.3885C10.1535 17.3899 10.513 17.2934 10.8296 17.1089C11.3933 16.7805 11.7654 16.2114 11.8774 15.5064ZM10.692 15.3149C10.6384 15.6529 10.4741 15.9175 10.2294 16.06C9.98467 16.2025 9.67542 16.2137 9.35844 16.0917C8.99783 15.9527 8.67891 15.6659 8.46036 15.2839C8.04022 14.5497 8.14008 13.6641 8.67868 13.3502C8.81408 13.2727 8.96742 13.2328 9.12309 13.2345C9.26911 13.236 9.41363 13.2644 9.54953 13.3184C9.91013 13.4574 10.2291 13.7443 10.4476 14.1262C10.6662 14.5081 10.7529 14.9304 10.692 15.3149ZM12.0074 12.9973C12.4336 13.3411 12.9203 13.5201 13.4125 13.5201C13.56 13.52 13.707 13.504 13.851 13.4724C15.1161 13.1949 15.8831 11.7524 15.5608 10.2569C15.4097 9.55497 15.0421 8.93915 14.5259 8.52279C13.9732 8.07694 13.3185 7.90818 12.6823 8.04776C11.4173 8.32518 10.6503 9.76763 10.9725 11.2632C11.1237 11.9651 11.4913 12.581 12.0074 12.9973ZM12.9373 9.23126C12.9956 9.21857 13.0551 9.21222 13.1148 9.21233C13.3379 9.21233 13.5674 9.3004 13.7764 9.46898C14.0779 9.71215 14.295 10.0834 14.3878 10.5144C14.5664 11.343 14.2038 12.1557 13.5961 12.289C13.3199 12.3496 13.0219 12.2653 12.757 12.0516C12.4555 11.8083 12.2384 11.4371 12.1456 11.0062C11.967 10.1773 12.3296 9.36456 12.9373 9.23126ZM23.9215 12.3013C23.3578 11.973 22.6831 11.9324 22.0221 12.1872C21.4048 12.4251 20.8687 12.8987 20.5128 13.5208C20.1568 14.1428 20.0183 14.848 20.1227 15.5064C20.2345 16.2114 20.6066 16.7805 21.1704 17.1089C21.4871 17.2934 21.8465 17.3899 22.2122 17.3885C22.5057 17.3867 22.7964 17.3306 23.0698 17.2231C23.6872 16.9852 24.2232 16.5116 24.5791 15.8895C25.3377 14.5641 25.0426 12.9545 23.9215 12.3013ZM23.5396 15.2839C23.3211 15.6659 23.0021 15.9527 22.6415 16.0917C22.3247 16.2139 22.0154 16.2026 21.7707 16.06C21.526 15.9174 21.3618 15.6529 21.3081 15.3149C21.2471 14.9304 21.3338 14.5082 21.5524 14.1265C21.771 13.7448 22.0898 13.4577 22.4505 13.3187C22.5863 13.2647 22.7309 13.2362 22.8769 13.2347C23.0326 13.233 23.1859 13.2729 23.3213 13.3504C23.8599 13.664 23.9599 14.5495 23.5396 15.2839ZM18.149 13.4724C18.293 13.504 18.44 13.52 18.5874 13.5201C19.0796 13.5201 19.5665 13.3411 19.9926 12.9973C20.5087 12.581 20.8763 11.9651 21.0275 11.2632C21.3497 9.76767 20.5826 8.32522 19.3177 8.0478C18.6816 7.90829 18.0268 8.07694 17.474 8.52282C16.9579 8.93915 16.5903 9.55501 16.4391 10.2569C16.1169 11.7524 16.8839 13.1949 18.149 13.4724ZM17.6122 10.5142C17.705 10.0832 17.9221 9.71181 18.2236 9.46879C18.4326 9.30022 18.6621 9.21214 18.8852 9.21214C18.9449 9.21203 19.0044 9.21838 19.0627 9.23107C19.6704 9.36437 20.033 10.1773 19.8545 11.0057C19.7616 11.4367 19.5445 11.8081 19.243 12.0512C18.9782 12.2649 18.6804 12.3492 18.404 12.2887C17.7962 12.1556 17.4336 11.3427 17.6122 10.5142Z" fill="#162327"/>
</svg>
