<svg width="32" height="32" viewBox="0 0 32 32" fill="none" xmlns="http://www.w3.org/2000/svg">
<path d="M1 16C1 7.71573 7.71573 1 16 1C24.2843 1 31 7.71573 31 16C31 24.2843 24.2843 31 16 31H1V16Z" fill="#FFA602" stroke="white" stroke-width="2"/>
<path d="M15.1786 19.2144C14.291 19.2144 13.5715 19.934 13.5715 20.8216C13.5715 21.7092 14.291 22.4288 15.1786 22.4288C16.0662 22.4288 16.7858 21.7092 16.7858 20.8216C16.7858 19.934 16.0662 19.2144 15.1786 19.2144ZM15.1786 19.2144V9.57146M24.8445 15.3573C24.5431 15.6587 24.1343 15.828 23.708 15.828C23.2818 15.828 22.873 15.6587 22.5716 15.3573C22.2702 15.0559 21.8614 14.8865 21.4351 14.8865C21.0089 14.8865 20.6001 15.0559 20.2987 15.3573M24.8445 12.1429C24.5431 12.4443 24.1343 12.6137 23.708 12.6137C23.2818 12.6137 22.873 12.4443 22.5716 12.1429C22.2702 11.8415 21.8614 11.6722 21.4351 11.6722C21.0089 11.6722 20.6001 11.8415 20.2987 12.1429M12.6072 17.529V9.57146C12.6072 8.88947 12.8781 8.23541 13.3603 7.75316C13.8426 7.27092 14.4966 7 15.1786 7C15.8606 7 16.5147 7.27092 16.9969 7.75316C17.4792 8.23541 17.7501 8.88947 17.7501 9.57146V17.529L17.7507 17.5282C18.4364 18.0637 18.9378 18.7999 19.185 19.6341C19.4322 20.4683 19.4129 21.3588 19.1297 22.1815C18.8465 23.0041 18.3136 23.7179 17.6053 24.2232C16.897 24.7284 16.0487 25 15.1786 25C14.3086 25 13.4602 24.7284 12.7519 24.2232C12.0437 23.7179 11.5107 23.0041 11.2275 22.1815C10.9444 21.3588 10.925 20.4683 11.1722 19.6341C11.4194 18.7999 11.9208 18.0637 12.6065 17.5282L12.6072 17.529Z" stroke="#1E2E34" stroke-width="1.5" stroke-linecap="round" stroke-linejoin="round"/>
</svg>
