<svg width="20" height="20" viewBox="0 0 20 20" fill="none" xmlns="http://www.w3.org/2000/svg">
<path d="M10.3743 14.901L14.1175 17.3974C14.596 17.7165 15.1901 17.2419 15.0481 16.654L13.9666 12.1756C13.9361 12.0509 13.9397 11.9197 13.977 11.797C14.0142 11.6743 14.0836 11.5652 14.1772 11.4822L17.5339 8.54132C17.9749 8.1549 17.7473 7.38439 17.1806 7.34567L12.797 7.0462C12.6789 7.03732 12.5657 6.99332 12.4704 6.91931C12.3752 6.84531 12.3019 6.74435 12.2591 6.62819L10.6241 2.29436C10.5797 2.17106 10.5007 2.06492 10.3976 1.99002C10.2945 1.91511 10.1722 1.875 10.0469 1.875C9.9216 1.875 9.79929 1.91511 9.69618 1.99002C9.59308 2.06492 9.51406 2.17106 9.46962 2.29436L7.8347 6.62819C7.79186 6.74435 7.71856 6.84531 7.62333 6.91931C7.52809 6.99332 7.41484 7.03732 7.29677 7.0462L2.91312 7.34567C2.34645 7.38439 2.11881 8.1549 2.55986 8.54132L5.91658 11.4822C6.01012 11.5652 6.07951 11.6743 6.11677 11.797C6.15403 11.9197 6.15763 12.0509 6.12718 12.1756L5.1242 16.3288C4.95382 17.0343 5.6667 17.6038 6.24088 17.2209L9.71949 14.901C9.81733 14.8354 9.9309 14.8006 10.0469 14.8006C10.1629 14.8006 10.2764 14.8354 10.3743 14.901Z" fill="#FFB526"/>
</svg>
