<svg width="58" height="58" viewBox="0 0 58 58" fill="none" xmlns="http://www.w3.org/2000/svg">
<circle cx="29" cy="29" r="29" fill="#FFA602"/>
<path d="M24.8937 34.1509C23.4294 34.1509 22.2423 35.338 22.2423 36.8023C22.2423 38.2667 23.4294 39.4537 24.8937 39.4537C26.3581 39.4537 27.5452 38.2667 27.5452 36.8023C27.5452 35.338 26.3581 34.1509 24.8937 34.1509ZM24.8937 34.1509V18.2423M40.84 27.7874C40.3428 28.2847 39.6684 28.564 38.9652 28.564C38.262 28.564 37.5876 28.2847 37.0903 27.7874C36.5931 27.2902 35.9187 27.0109 35.2155 27.0109C34.5123 27.0109 33.8379 27.2902 33.3406 27.7874M40.84 22.4846C40.3428 22.9818 39.6684 23.2612 38.9652 23.2612C38.262 23.2612 37.5876 22.9818 37.0903 22.4846C36.5931 21.9873 35.9187 21.708 35.2155 21.708C34.5123 21.708 33.8379 21.9873 33.3406 22.4846M20.6514 31.3703V18.2423C20.6514 17.1172 21.0984 16.0381 21.894 15.2425C22.6896 14.447 23.7686 14 24.8937 14C26.0188 14 27.0979 14.447 27.8935 15.2425C28.6891 16.0381 29.136 17.1172 29.136 18.2423V31.3703L29.1371 31.3689C30.2683 32.2524 31.0955 33.467 31.5033 34.8432C31.9112 36.2194 31.8792 37.6886 31.412 39.0458C30.9448 40.403 30.0657 41.5805 28.8972 42.4141C27.7286 43.2476 26.3291 43.6957 24.8937 43.6957C23.4584 43.6957 22.0588 43.2476 20.8903 42.4141C19.7218 41.5805 18.8426 40.403 18.3754 39.0458C17.9082 37.6886 17.8763 36.2194 18.2841 34.8432C18.6919 33.467 19.5192 32.2524 20.6504 31.3689L20.6514 31.3703Z" stroke="#0B1519" stroke-width="1.5" stroke-linecap="round" stroke-linejoin="round"/>
</svg>
