<svg width="33" height="32" viewBox="0 0 33 32" fill="none" xmlns="http://www.w3.org/2000/svg">
<path d="M3.53809 26.6236C3.33088 26.9823 3.45365 27.441 3.81231 27.6482C4.17097 27.8554 4.6297 27.7327 4.83691 27.374L3.53809 26.6236ZM27.791 27.3743C27.9982 27.7329 28.4569 27.8557 28.8156 27.6485C29.1742 27.4413 29.297 26.9826 29.0898 26.6239L27.791 27.3743ZM4.83691 27.374C6.00052 25.3599 7.67366 23.6875 9.68826 22.5248L8.93845 21.2256C6.69587 22.52 4.83338 24.3816 3.53809 26.6236L4.83691 27.374ZM9.68826 22.5248C11.7029 21.3621 13.988 20.75 16.314 20.75L16.314 19.25C13.7247 19.25 11.181 19.9313 8.93845 21.2256L9.68826 22.5248ZM16.314 20.75C18.6401 20.75 20.9252 21.3622 22.9397 22.5249L23.6896 21.2258C21.447 19.9314 18.9033 19.25 16.314 19.25L16.314 20.75ZM22.9397 22.5249C24.9543 23.6877 26.6274 25.3601 27.791 27.3743L29.0898 26.6239C27.7946 24.3819 25.9321 22.5202 23.6896 21.2258L22.9397 22.5249ZM23.5639 12C23.5639 16.0041 20.3181 19.25 16.314 19.25V20.75C21.1465 20.75 25.0639 16.8325 25.0639 12H23.5639ZM16.314 19.25C12.3099 19.25 9.06388 16.004 9.06388 12H7.56387C7.56387 16.8325 11.4815 20.75 16.314 20.75V19.25ZM9.06388 12C9.06388 7.99593 12.3098 4.75 16.3139 4.75V3.25C11.4814 3.25 7.56387 7.16751 7.56387 12H9.06388ZM16.3139 4.75C20.3179 4.75 23.5639 7.99593 23.5639 12H25.0639C25.0639 7.16751 21.1464 3.25 16.3139 3.25V4.75Z" fill="#A7B9A8"/>
</svg>
