<svg width="33" height="32" viewBox="0 0 33 32" fill="none" xmlns="http://www.w3.org/2000/svg">
<path d="M19.458 6.52172C19.0593 6.63405 18.8272 7.04832 18.9395 7.44701C19.0519 7.8457 19.4661 8.07784 19.8648 7.96551L19.458 6.52172ZM21.4251 20.0015L21.4246 19.2515C21.0105 19.2518 20.6749 19.5877 20.6751 20.0018C20.6753 20.4159 21.0111 20.7515 21.4252 20.7515L21.4251 20.0015ZM29.8113 25.1063C30.0493 25.4453 30.5171 25.5272 30.8561 25.2892C31.1951 25.0512 31.277 24.5835 31.039 24.2444L29.8113 25.1063ZM1.62082 24.2447C1.3826 24.5836 1.46418 25.0514 1.80303 25.2896C2.14189 25.5278 2.6097 25.4463 2.84793 25.1074L1.62082 24.2447ZM19.6214 25.1068C19.8597 25.4456 20.3275 25.5272 20.6663 25.2889C21.0052 25.0507 21.0867 24.5828 20.8485 24.244L19.6214 25.1068ZM16.9849 13.5015C16.9849 16.6771 14.4105 19.2515 11.2349 19.2515V20.7515C15.239 20.7515 18.4849 17.5056 18.4849 13.5015H16.9849ZM11.2349 19.2515C8.05926 19.2515 5.4849 16.6771 5.4849 13.5015H3.9849C3.9849 17.5056 7.23084 20.7515 11.2349 20.7515V19.2515ZM5.4849 13.5015C5.4849 10.3259 8.05926 7.75149 11.2349 7.75149V6.25149C7.23084 6.25149 3.9849 9.49742 3.9849 13.5015H5.4849ZM11.2349 7.75149C14.4105 7.75149 16.9849 10.3259 16.9849 13.5015H18.4849C18.4849 9.49742 15.239 6.25149 11.2349 6.25149V7.75149ZM19.8648 7.96551C20.6557 7.74268 21.4851 7.69191 22.2973 7.81664L22.525 6.33402C21.501 6.17676 20.4552 6.24077 19.458 6.52172L19.8648 7.96551ZM22.2973 7.81664C23.1094 7.94136 23.8854 8.23868 24.573 8.68856L25.3943 7.43337C24.5274 6.86614 23.549 6.49128 22.525 6.33402L22.2973 7.81664ZM24.573 8.68856C25.2606 9.13844 25.8438 9.73044 26.2833 10.4247L27.5506 9.62234C26.9965 8.74701 26.2612 8.0006 25.3943 7.43337L24.573 8.68856ZM26.2833 10.4247C26.7228 11.1189 27.0084 11.8993 27.1209 12.7132L28.6068 12.5078C28.4649 11.4816 28.1048 10.4977 27.5506 9.62234L26.2833 10.4247ZM27.1209 12.7132C27.2335 13.5272 27.1703 14.3558 26.9356 15.1432L28.3731 15.5716C28.669 14.5788 28.7487 13.534 28.6068 12.5078L27.1209 12.7132ZM26.9356 15.1432C26.7009 15.9306 26.3002 16.6587 25.7605 17.2782L26.8915 18.2635C27.572 17.4824 28.0772 16.5645 28.3731 15.5716L26.9356 15.1432ZM25.7605 17.2782C25.2207 17.8978 24.5545 18.3944 23.8067 18.7348L24.4281 20.1001C25.371 19.6709 26.211 19.0447 26.8915 18.2635L25.7605 17.2782ZM23.8067 18.7348C23.0588 19.0752 22.2467 19.2514 21.425 19.2515L21.4252 20.7515C22.4612 20.7514 23.4851 20.5292 24.4281 20.1001L23.8067 18.7348ZM21.4257 20.7515C23.0705 20.7503 24.6913 21.1455 26.151 21.9035L26.8423 20.5723C25.1687 19.7032 23.3104 19.2501 21.4246 19.2515L21.4257 20.7515ZM26.151 21.9035C27.6107 22.6615 28.8662 23.7602 29.8113 25.1063L31.039 24.2444C29.9554 22.701 28.5159 21.4414 26.8423 20.5723L26.151 21.9035ZM2.84793 25.1074C3.79389 23.7618 5.04972 22.6636 6.50938 21.9055L5.81799 20.5743C4.14476 21.4434 2.70519 22.7023 1.62082 24.2447L2.84793 25.1074ZM6.50938 21.9055C7.96902 21.1474 9.59009 20.7515 11.2349 20.7515L11.2349 19.2515C9.34944 19.2516 7.49125 19.7053 5.81799 20.5743L6.50938 21.9055ZM11.2349 20.7515C12.8797 20.7514 14.5 21.1471 15.9597 21.9051L16.651 20.5739C14.9777 19.705 13.1204 19.2514 11.2349 19.2515L11.2349 20.7515ZM15.9597 21.9051C17.4194 22.6632 18.6754 23.7613 19.6214 25.1068L20.8485 24.244C19.764 22.7016 18.3243 21.4429 16.651 20.5739L15.9597 21.9051Z" fill="#A7B9A8"/>
</svg>
