<svg width="48" height="72" viewBox="0 0 48 72" fill="none" xmlns="http://www.w3.org/2000/svg">
<path d="M38.6088 0.553461C38.2677 -0.121627 37.3083 -0.135839 36.9459 0.532142L33.6413 6.65057C33.1154 7.61701 32.0068 8.11444 30.9408 7.8373C28.8799 7.29723 26.492 6.99167 23.9479 6.99167C21.5672 6.99167 19.3215 7.2617 17.3529 7.73782C16.3083 7.99364 15.221 7.48199 14.7093 6.53687L11.4971 0.532142C11.1418 -0.135839 10.1753 -0.121627 9.83415 0.553461L1.0859 17.9636C0.673721 18.7879 1.27068 19.7615 2.19454 19.7615H2.49301C11.689 19.7615 19.7763 25.8302 22.3418 34.6632L23.3296 38.0599L24.1184 40.5684C24.1966 40.8242 24.4382 40.9948 24.7012 40.9948C24.9641 40.9948 25.2058 40.8171 25.2839 40.5613L25.5113 39.8223L27.1885 33.9383C29.5834 25.5459 37.2444 19.7615 45.9713 19.7615H46.2342C47.1581 19.7615 47.755 18.7879 47.3429 17.9636L38.6088 0.553461Z" fill="#EF9C2E"/>
<path d="M45.9796 22.6055C38.5247 22.6055 31.9724 27.5514 29.9257 34.7215L28.2415 40.641L27.7227 42.318C27.0404 44.592 26.3298 47.2 25.6618 49.68C25.3988 50.6678 23.9988 50.6607 23.743 49.68C23.0963 47.2071 22.3856 44.6204 21.7034 42.3962L20.6019 38.9L19.6069 35.4748C17.3897 27.864 10.411 22.6268 2.4871 22.6268C1.03735 22.6268 0.0637454 23.9414 0.546995 25.32L17.1409 69.9824C17.347 70.6078 17.9724 71.0199 18.6618 71.0199H29.5846C30.274 71.0199 30.8993 70.6078 31.1054 69.9824L47.8415 25.32C48.3958 23.8704 47.4293 22.6268 45.9725 22.6268L45.9796 22.6055Z" fill="#F2F5FF"/>
</svg>
