<svg width="16" height="25" viewBox="0 0 16 25" fill="none" xmlns="http://www.w3.org/2000/svg">
<path d="M8.52152 11.8293L8.15568 13.1128L7.85263 12.0707C7.85261 12.0706 7.85259 12.0706 7.85258 12.0705C6.93085 8.89725 4.03208 6.71373 0.731313 6.69893L3.4529 1.28262L4.36486 2.9874L4.36485 2.9874L4.36604 2.9896C4.64106 3.49759 5.23091 3.78378 5.8137 3.64107L5.69477 3.15542L5.81232 3.6414C6.43313 3.49125 7.14869 3.40449 7.91258 3.40449C8.72954 3.40449 9.48962 3.50277 10.1375 3.67254L10.1384 3.67279C10.725 3.8253 11.3279 3.55006 11.6116 3.02877L11.6123 3.0274L12.5554 1.28131L15.2732 6.699C12.1339 6.71903 9.38401 8.80694 8.52156 11.8292L8.52152 11.8293Z" fill="#F0F7F1" stroke="#F0F7F1"/>
<path d="M8.48791 17.2611L8.9707 17.3912C9.19521 16.5577 9.4323 15.6878 9.65926 14.9311L9.8331 14.3692L9.83323 14.3692L9.83635 14.3582L10.4026 12.368C10.4027 12.3679 10.4027 12.3678 10.4027 12.3678C11.0048 10.2588 12.8792 8.77812 15.0489 8.66342H15.3182C15.4187 8.66342 15.4643 8.70336 15.4804 8.72568C15.4927 8.74286 15.5181 8.79008 15.4797 8.89055L15.4785 8.89368L9.85035 23.9132L9.84682 23.9226L9.84556 23.9264C9.84511 23.9268 9.84456 23.9272 9.84391 23.9276C9.83699 23.9323 9.82406 23.9375 9.80712 23.9375H6.13388C6.11694 23.9375 6.10401 23.9323 6.09709 23.9276C6.09644 23.9272 6.09589 23.9268 6.09544 23.9264L6.09439 23.9232L6.09114 23.9145L0.512781 8.9004C0.48703 8.82404 0.50414 8.77056 0.528949 8.73643C0.555292 8.7002 0.60722 8.66342 0.694514 8.66342C3.13683 8.66342 5.28818 10.2778 5.97169 12.6239L6.30616 13.7754L6.30604 13.7754L6.30942 13.7862L6.67929 14.9601C6.90565 15.6982 7.14244 16.5599 7.35891 17.3876C7.57505 18.2151 8.75076 18.2174 8.97108 17.3898L8.48791 17.2611ZM8.48791 17.2611C8.39948 17.5933 7.92868 17.5909 7.84264 17.2611L9.18097 14.7854C8.95155 15.5501 8.71256 16.4271 8.48791 17.2611Z" stroke="#F0F7F1"/>
</svg>
