<svg width="52" height="52" viewBox="0 0 52 52" fill="none" xmlns="http://www.w3.org/2000/svg">
<path d="M25.223 29.12L24.743 17.648H28.103L27.623 29.12H25.223ZM26.423 35.24C25.847 35.24 25.375 35.048 25.007 34.664C24.639 34.28 24.455 33.808 24.455 33.248C24.455 32.688 24.639 32.216 25.007 31.832C25.375 31.448 25.847 31.256 26.423 31.256C26.999 31.256 27.471 31.448 27.839 31.832C28.207 32.216 28.391 32.688 28.391 33.248C28.391 33.808 28.207 34.28 27.839 34.664C27.471 35.048 26.999 35.24 26.423 35.24Z" fill="#0B1519"/>
<path d="M9.22772 35.9527C6.80498 31.8686 5.95651 27.0404 6.84165 22.375C7.72678 17.7095 10.2846 13.5276 14.0349 10.6146C17.7851 7.70159 22.4698 6.25781 27.2092 6.55439C31.9487 6.85098 36.4168 8.86751 39.7746 12.2253C43.1325 15.5832 45.149 20.0513 45.4456 24.7907C45.7422 29.5301 44.2985 34.2148 41.3855 37.9651C38.4725 41.7154 34.2906 44.2732 29.6252 45.1584C24.9597 46.0435 20.1316 45.1951 16.0474 42.7724L16.0474 42.7722L9.31251 44.6964C9.03386 44.7761 8.73899 44.7797 8.45846 44.707C8.17793 44.6343 7.92194 44.4879 7.71702 44.283C7.51211 44.0781 7.36572 43.8221 7.29303 43.5416C7.22033 43.261 7.22398 42.9662 7.3036 42.6875L9.22787 35.9526L9.22772 35.9527Z" stroke="#0B1519" stroke-width="3" stroke-linecap="round" stroke-linejoin="round"/>
</svg>
