<svg width="53" height="53" viewBox="0 0 53 53" fill="none" xmlns="http://www.w3.org/2000/svg">
<path d="M26.0871 21.71V29.7802M23.2933 8.79455L5.54364 39.4598C5.25962 39.9505 5.10984 40.5073 5.10938 41.0743C5.10891 41.6412 5.25776 42.1983 5.54097 42.6894C5.82417 43.1806 6.23174 43.5885 6.72265 43.8721C7.21357 44.1557 7.77052 44.305 8.33747 44.305H43.8368C44.4038 44.305 44.9607 44.1557 45.4516 43.8721C45.9425 43.5885 46.3501 43.1806 46.6333 42.6894C46.9165 42.1983 47.0654 41.6412 47.0649 41.0743C47.0644 40.5073 46.9147 39.9505 46.6306 39.4598L28.881 8.79455C28.5974 8.30466 28.19 7.89794 27.6996 7.61519C27.2093 7.33243 26.6532 7.18359 26.0871 7.18359C25.5211 7.18359 24.965 7.33243 24.4746 7.61519C23.9843 7.89794 23.5769 8.30466 23.2933 8.79455Z" stroke="#1D251E" stroke-width="3.77922" stroke-linecap="round" stroke-linejoin="round"/>
<path d="M26.0851 39.4632C27.4222 39.4632 28.5062 38.3793 28.5062 37.0422C28.5062 35.705 27.4222 34.6211 26.0851 34.6211C24.748 34.6211 23.6641 35.705 23.6641 37.0422C23.6641 38.3793 24.748 39.4632 26.0851 39.4632Z" fill="#1D251E"/>
</svg>
